<svg width="20" height="24" viewBox="0 0 20 24" fill="none" xmlns="http://www.w3.org/2000/svg">
<g clip-path="url(#clip0_1970_81)">
<path d="M14.1129 2.05322H5.97838C3.7321 2.05322 1.91113 4.19908 1.91113 6.84612V16.4319C1.91113 19.079 3.7321 21.2248 5.97838 21.2248H14.1129C16.3591 21.2248 18.1801 19.079 18.1801 16.4319V6.84612C18.1801 4.19908 16.3591 2.05322 14.1129 2.05322Z" stroke="white" stroke-width="2" stroke-linecap="round" stroke-linejoin="round"/>
<path d="M13.2993 11.0352C13.3997 11.833 13.2841 12.6477 12.9688 13.3636C12.6536 14.0795 12.1549 14.66 11.5436 15.0226C10.9323 15.3852 10.2395 15.5114 9.56377 15.3833C8.88807 15.2551 8.26386 14.8792 7.77992 14.3089C7.29598 13.7386 6.97696 13.003 6.86823 12.2068C6.7595 11.4105 6.8666 10.5941 7.1743 9.87376C7.482 9.15337 7.97462 8.56565 8.5821 8.1942C9.18958 7.82275 9.88099 7.68648 10.558 7.80478C11.2485 7.92545 11.8879 8.30465 12.3815 8.88636C12.8751 9.46806 13.1969 10.2214 13.2993 11.0352Z" stroke="white" stroke-width="2" stroke-linecap="round" stroke-linejoin="round"/>
<path d="M14.5195 6.36682H14.5277" stroke="white" stroke-width="2" stroke-linecap="round" stroke-linejoin="round"/>
</g>
<defs>
<clipPath id="clip0_1970_81">
<rect width="19.5228" height="23.0059" fill="white" transform="translate(0.28418 0.136108)"/>
</clipPath>
</defs>
</svg>
