<svg width="153" height="34" viewBox="0 0 153 34" fill="none" xmlns="http://www.w3.org/2000/svg">
<path d="M61.0028 12.5814H56.9664C56.8927 12.0601 56.7422 11.5971 56.5149 11.1923C56.2876 10.7814 55.9957 10.4319 55.6394 10.1436C55.2831 9.85537 54.8715 9.63459 54.4045 9.48127C53.9438 9.32796 53.4431 9.2513 52.9024 9.2513C51.9256 9.2513 51.0747 9.49354 50.3498 9.97803C49.6248 10.4564 49.0627 11.1555 48.6634 12.0754C48.264 12.9892 48.0644 14.0992 48.0644 15.4055C48.0644 16.7486 48.264 17.877 48.6634 18.7908C49.0688 19.7046 49.634 20.3945 50.359 20.8606C51.0839 21.3267 51.9225 21.5597 52.8748 21.5597C53.4093 21.5597 53.9038 21.4892 54.3585 21.3482C54.8192 21.2071 55.2278 21.0017 55.5841 20.7318C55.9404 20.4558 56.2353 20.1216 56.4688 19.7291C56.7084 19.3366 56.8743 18.8889 56.9664 18.386L61.0028 18.4044C60.8983 19.2692 60.6372 20.1032 60.2194 20.9066C59.8078 21.7039 59.2518 22.4183 58.5515 23.05C57.8572 23.6755 57.0279 24.1723 56.0633 24.5403C55.1049 24.9021 54.0206 25.083 52.8103 25.083C51.1269 25.083 49.6218 24.7028 48.2947 23.9423C46.9739 23.1819 45.9295 22.081 45.1615 20.6398C44.3997 19.1986 44.0188 17.4539 44.0188 15.4055C44.0188 13.351 44.4058 11.6032 45.1799 10.162C45.954 8.72081 47.0046 7.62305 48.3316 6.86872C49.6586 6.10826 51.1515 5.72803 52.8103 5.72803C53.9038 5.72803 54.9175 5.88135 55.8514 6.18798C56.7913 6.49462 57.6238 6.94231 58.3487 7.53106C59.0737 8.11367 59.6635 8.82814 60.1181 9.67446C60.5788 10.5208 60.8737 11.4898 61.0028 12.5814Z" fill="white"/>
<path d="M68.2396 25.1014C66.8081 25.1014 65.5702 24.7978 64.5258 24.1907C63.4875 23.5774 62.6858 22.725 62.1206 21.6333C61.5554 20.5356 61.2728 19.263 61.2728 17.8157C61.2728 16.3561 61.5554 15.0805 62.1206 13.9888C62.6858 12.8911 63.4875 12.0386 64.5258 11.4315C65.5702 10.8182 66.8081 10.5116 68.2396 10.5116C69.6711 10.5116 70.9059 10.8182 71.9442 11.4315C72.9886 12.0386 73.7934 12.8911 74.3586 13.9888C74.9238 15.0805 75.2064 16.3561 75.2064 17.8157C75.2064 19.263 74.9238 20.5356 74.3586 21.6333C73.7934 22.725 72.9886 23.5774 71.9442 24.1907C70.9059 24.7978 69.6711 25.1014 68.2396 25.1014ZM68.258 22.0657C68.9093 22.0657 69.453 21.8817 69.8892 21.5137C70.3253 21.1396 70.654 20.6306 70.8752 19.9867C71.1025 19.3427 71.2162 18.6099 71.2162 17.7881C71.2162 16.9663 71.1025 16.2334 70.8752 15.5895C70.654 14.9456 70.3253 14.4365 69.8892 14.0624C69.453 13.6883 68.9093 13.5013 68.258 13.5013C67.6007 13.5013 67.0477 13.6883 66.5993 14.0624C66.1569 14.4365 65.8221 14.9456 65.5948 15.5895C65.3736 16.2334 65.263 16.9663 65.263 17.7881C65.263 18.6099 65.3736 19.3427 65.5948 19.9867C65.8221 20.6306 66.1569 21.1396 66.5993 21.5137C67.0477 21.8817 67.6007 22.0657 68.258 22.0657Z" fill="white"/>
<path d="M75.8128 24.8254V10.6956H79.5543V13.1885H79.7201C80.015 12.3606 80.5065 11.7075 81.1946 11.2291C81.8827 10.7508 82.7059 10.5116 83.6643 10.5116C84.635 10.5116 85.4613 10.7538 86.1433 11.2383C86.8252 11.7167 87.2798 12.3667 87.5071 13.1885H87.6546C87.9433 12.379 88.4655 11.732 89.2212 11.2475C89.983 10.7569 90.883 10.5116 91.9213 10.5116C93.2422 10.5116 94.3142 10.9317 95.1375 11.7719C95.9669 12.6059 96.3815 13.7895 96.3815 15.3227V24.8254H92.465V16.0955C92.465 15.3105 92.2561 14.7217 91.8384 14.3292C91.4206 13.9367 90.8984 13.7405 90.2718 13.7405C89.5591 13.7405 89.0031 13.9674 88.6038 14.4212C88.2044 14.8689 88.0048 15.4607 88.0048 16.1966V24.8254H84.1988V16.0127C84.1988 15.3197 83.9991 14.7677 83.5998 14.3568C83.2066 13.9459 82.6875 13.7405 82.0424 13.7405C81.6062 13.7405 81.213 13.8509 80.8628 14.0716C80.5188 14.2863 80.2454 14.5899 80.0427 14.9824C79.8399 15.3687 79.7386 15.8225 79.7386 16.3438V24.8254H75.8128Z" fill="white"/>
<path d="M97.5362 30.1241V10.6956H101.407V13.0689H101.582C101.754 12.6887 102.003 12.3023 102.328 11.9098C102.66 11.5112 103.09 11.18 103.618 10.9163C104.153 10.6465 104.816 10.5116 105.609 10.5116C106.641 10.5116 107.593 10.7814 108.466 11.3211C109.338 11.8547 110.035 12.6611 110.558 13.7405C111.08 14.8137 111.341 16.1598 111.341 17.7789C111.341 19.355 111.086 20.6858 110.576 21.7713C110.072 22.8507 109.384 23.6694 108.512 24.2275C107.646 24.7794 106.675 25.0554 105.6 25.0554C104.838 25.0554 104.19 24.9297 103.655 24.6782C103.127 24.4268 102.694 24.111 102.356 23.7307C102.018 23.3444 101.76 22.9549 101.582 22.5624H101.462V30.1241H97.5362ZM101.379 17.7605C101.379 18.6007 101.496 19.3335 101.729 19.9591C101.963 20.5846 102.301 21.0722 102.743 21.4217C103.185 21.7652 103.723 21.9369 104.356 21.9369C104.995 21.9369 105.535 21.7621 105.978 21.4125C106.42 21.0569 106.755 20.5662 106.982 19.9407C107.215 19.309 107.332 18.5823 107.332 17.7605C107.332 16.9448 107.219 16.2273 106.991 15.6079C106.764 14.9885 106.429 14.504 105.987 14.1544C105.544 13.8049 105.001 13.6301 104.356 13.6301C103.717 13.6301 103.176 13.7987 102.734 14.136C102.298 14.4733 101.963 14.9517 101.729 15.5711C101.496 16.1905 101.379 16.9203 101.379 17.7605Z" fill="white"/>
<path d="M112.012 24.8254V10.6956H115.818V13.1609H115.965C116.223 12.2839 116.656 11.6216 117.265 11.1739C117.873 10.7201 118.573 10.4932 119.366 10.4932C119.562 10.4932 119.774 10.5054 120.002 10.53C120.229 10.5545 120.428 10.5882 120.601 10.6312V14.1084C120.416 14.0532 120.161 14.0042 119.836 13.9613C119.51 13.9183 119.212 13.8969 118.942 13.8969C118.364 13.8969 117.848 14.0226 117.394 14.274C116.945 14.5193 116.589 14.8628 116.325 15.3043C116.067 15.7459 115.938 16.2549 115.938 16.8314V24.8254H112.012Z" fill="white"/>
<path d="M124.315 25.0922C123.412 25.0922 122.607 24.9358 121.9 24.623C121.194 24.3041 120.635 23.835 120.223 23.2156C119.818 22.59 119.615 21.8112 119.615 20.879C119.615 20.094 119.759 19.4347 120.048 18.9012C120.337 18.3676 120.73 17.9383 121.228 17.6133C121.725 17.2883 122.29 17.043 122.923 16.8774C123.562 16.7118 124.232 16.5953 124.932 16.5278C125.755 16.442 126.419 16.3622 126.923 16.2886C127.426 16.2089 127.792 16.0924 128.019 15.9391C128.247 15.7857 128.36 15.5588 128.36 15.2583V15.2031C128.36 14.6205 128.176 14.1698 127.807 13.8509C127.445 13.532 126.929 13.3725 126.259 13.3725C125.553 13.3725 124.991 13.5289 124.573 13.8417C124.155 14.1483 123.879 14.5347 123.743 15.0008L120.113 14.7064C120.297 13.8478 120.659 13.1057 121.2 12.4802C121.741 11.8485 122.438 11.364 123.292 11.0267C124.152 10.6833 125.147 10.5116 126.278 10.5116C127.064 10.5116 127.817 10.6036 128.535 10.7876C129.26 10.9715 129.902 11.2567 130.461 11.6431C131.027 12.0294 131.472 12.5262 131.798 13.1333C132.123 13.7343 132.286 14.4549 132.286 15.2951V24.8254H128.563V22.866H128.452C128.225 23.3076 127.921 23.697 127.54 24.0343C127.159 24.3655 126.702 24.6261 126.167 24.8162C125.633 25.0002 125.015 25.0922 124.315 25.0922ZM125.439 22.3877C126.017 22.3877 126.526 22.2742 126.969 22.0473C127.411 21.8142 127.758 21.5015 128.01 21.109C128.262 20.7165 128.388 20.2719 128.388 19.7751V18.2756C128.265 18.3554 128.096 18.429 127.881 18.4964C127.672 18.5578 127.436 18.616 127.172 18.6712C126.907 18.7203 126.643 18.7663 126.379 18.8092C126.115 18.846 125.875 18.8797 125.66 18.9104C125.199 18.9778 124.797 19.0852 124.453 19.2324C124.109 19.3795 123.842 19.5789 123.651 19.8303C123.461 20.0756 123.366 20.3822 123.366 20.7502C123.366 21.2838 123.559 21.6916 123.946 21.9737C124.339 22.2497 124.837 22.3877 125.439 22.3877Z" fill="white"/>
<path d="M137.311 5.9856V24.8254H133.385V5.9856H137.311Z" fill="white"/>
<path d="M144.905 25.1014C143.474 25.1014 142.236 24.7978 141.191 24.1907C140.153 23.5774 139.351 22.725 138.786 21.6333C138.221 20.5356 137.938 19.263 137.938 17.8157C137.938 16.3561 138.221 15.0805 138.786 13.9888C139.351 12.8911 140.153 12.0386 141.191 11.4315C142.236 10.8182 143.474 10.5116 144.905 10.5116C146.337 10.5116 147.571 10.8182 148.61 11.4315C149.654 12.0386 150.459 12.8911 151.024 13.9888C151.589 15.0805 151.872 16.3561 151.872 17.8157C151.872 19.263 151.589 20.5356 151.024 21.6333C150.459 22.725 149.654 23.5774 148.61 24.1907C147.571 24.7978 146.337 25.1014 144.905 25.1014ZM144.924 22.0657C145.575 22.0657 146.119 21.8817 146.555 21.5137C146.991 21.1396 147.32 20.6306 147.541 19.9867C147.768 19.3427 147.882 18.6099 147.882 17.7881C147.882 16.9663 147.768 16.2334 147.541 15.5895C147.32 14.9456 146.991 14.4365 146.555 14.0624C146.119 13.6883 145.575 13.5013 144.924 13.5013C144.266 13.5013 143.713 13.6883 143.265 14.0624C142.822 14.4365 142.488 14.9456 142.26 15.5895C142.039 16.2334 141.929 16.9663 141.929 17.7881C141.929 18.6099 142.039 19.3427 142.26 19.9867C142.488 20.6306 142.822 21.1396 143.265 21.5137C143.713 21.8817 144.266 22.0657 144.924 22.0657Z" fill="white"/>
<g clip-path="url(#clip0_2002_411)">
<path fill-rule="evenodd" clip-rule="evenodd" d="M13.5834 30.492C13.8169 30.492 14.2367 30.2831 14.2367 29.75C14.2367 29.2169 13.8169 29.0079 13.5834 29.0079C13.35 29.0079 12.9302 29.2169 12.9302 29.75C12.9302 30.2831 13.35 30.492 13.5834 30.492ZM9.91162 29.75C9.91162 27.6521 11.6829 26.1746 13.5834 26.1746C15.484 26.1746 17.2553 27.6521 17.2553 29.75C17.2553 31.8479 15.484 33.3254 13.5834 33.3254C11.6829 33.3254 9.91162 31.8479 9.91162 29.75Z" fill="white"/>
<path fill-rule="evenodd" clip-rule="evenodd" d="M30.1855 30.492C30.4189 30.492 30.8388 30.2831 30.8388 29.75C30.8388 29.2169 30.4189 29.0079 30.1855 29.0079C29.952 29.0079 29.5322 29.2169 29.5322 29.75C29.5322 30.2831 29.952 30.492 30.1855 30.492ZM26.5137 29.75C26.5137 27.6521 28.2849 26.1746 30.1855 26.1746C32.086 26.1746 33.8573 27.6521 33.8573 29.75C33.8573 31.8479 32.086 33.3254 30.1855 33.3254C28.2849 33.3254 26.5137 31.8479 26.5137 29.75Z" fill="white"/>
<path fill-rule="evenodd" clip-rule="evenodd" d="M-0.65332 1.41679C-0.65332 0.224553 0.314884 -0.741943 1.50922 -0.741943H7.54632L9.66148 0.967354L10.8074 6.34139H34.7133L36.8327 8.9292L34.4178 20.815L34.4143 20.8321C34.1644 22.0128 33.4863 23.0441 32.5357 23.7623C31.5937 24.4741 30.4358 24.8418 29.2629 24.8255H14.6267C13.4538 24.8418 12.2959 24.4741 11.3539 23.7623C10.404 23.0445 9.72604 22.0141 9.47581 20.8344C9.47565 20.8336 9.47549 20.8329 9.47533 20.8321L6.95894 9.03102C6.94568 8.97867 6.93434 8.92557 6.92499 8.87178L5.79565 3.57552H1.50922C0.314884 3.57552 -0.65332 2.60902 -0.65332 1.41679ZM11.728 10.6588L13.707 19.9398C13.7332 20.0635 13.8111 20.2041 13.9642 20.3198C14.12 20.4375 14.3346 20.5127 14.5708 20.5084L14.6097 20.5081H29.2799L29.3188 20.5084C29.5551 20.5127 29.7696 20.4375 29.9254 20.3198C30.0764 20.2057 30.1542 20.0675 30.1814 19.945L32.0681 10.6588H11.728Z" fill="white"/>
</g>
<defs>
<clipPath id="clip0_2002_411">
<rect width="36.2226" height="34" fill="white"/>
</clipPath>
</defs>
</svg>
