<svg width="21" height="21" viewBox="0 0 21 21" fill="none" xmlns="http://www.w3.org/2000/svg">
<path d="M19.6205 1.87573C18.8415 2.52323 17.979 3.01846 17.0663 3.34236C16.5763 2.67855 15.9253 2.20806 15.201 1.99452C14.4768 1.78098 13.7144 1.8347 13.017 2.1484C12.3195 2.4621 11.7206 3.02066 11.3013 3.74852C10.882 4.47639 10.6625 5.33844 10.6725 6.2181V7.17668C9.24302 7.22036 7.82651 6.84674 6.54918 6.08911C5.27185 5.33148 4.17335 4.21336 3.35151 2.83431C3.35151 2.83431 0.0977116 11.4615 7.41875 15.2958C5.74348 16.6359 3.74778 17.3078 1.72461 17.213C9.04565 22.0059 17.9936 17.213 17.9936 6.18934C17.9928 5.92233 17.9711 5.65598 17.9285 5.39372C18.7587 4.4289 19.3446 3.21075 19.6205 1.87573V1.87573Z" stroke="white" stroke-width="2" stroke-linecap="round" stroke-linejoin="round"/>
</svg>
